Jinko-HeavyFF.ufo
<glyph name="parenleft" format="1">
  <advance width="945"/>
  <unicode hex="0028"/>
  <outline>
    <contour>
      <point x="514" y="-349" type="line" smooth="no"/>
      <point x="287" y="-89"/>
      <point x="129" y="226"/>
      <point x="129" y="611" type="curve" smooth="yes"/>
      <point x="129" y="1040"/>
      <point x="283" y="1313"/>
      <point x="514" y="1573" type="curve" smooth="no"/>
      <point x="886" y="1573" type="line" smooth="no"/>
      <point x="881" y="1552"/>
      <point x="868" y="1531"/>
      <point x="863" y="1510" type="curve" smooth="no"/>
      <point x="688" y="1306"/>
      <point x="506" y="1005"/>
      <point x="506" y="611" type="curve" smooth="yes"/>
      <point x="506" y="235"/>
      <point x="668" y="-75"/>
      <point x="863" y="-287" type="curve" smooth="no"/>
      <point x="868" y="-306"/>
      <point x="881" y="-329"/>
      <point x="886" y="-349" type="curve" smooth="no"/>
    </contour>
  </outline>
</glyph>
<glyph name="parenright" format="1">
  <advance width="946"/>
  <unicode hex="0029"/>
  <outline>
    <contour>
      <point x="63" y="-349" type="line" smooth="no"/>
      <point x="68" y="-329"/>
      <point x="81" y="-307"/>
      <point x="84" y="-287" type="curve" smooth="no"/>
      <point x="274" y="-77"/>
      <point x="444" y="225"/>
      <point x="444" y="611" type="curve" smooth="yes"/>
      <point x="444" y="1003"/>
      <point x="263" y="1306"/>
      <point x="84" y="1510" type="curve" smooth="no"/>
      <point x="81" y="1533"/>
      <point x="68" y="1552"/>
      <point x="63" y="1573" type="curve" smooth="no"/>
      <point x="433" y="1573" type="line" smooth="no"/>
      <point x="667" y="1312"/>
      <point x="818" y="1028"/>
      <point x="818" y="611" type="curve" smooth="yes"/>
      <point x="818" y="221"/>
      <point x="664" y="-87"/>
      <point x="433" y="-349" type="curve" smooth="no"/>
    </contour>
  </outline>
</glyph>
<glyph name="asterisk" format="1">
  <advance width="1168"/>
  <unicode hex="002a"/>
  <outline>
    <contour>
      <point x="532" y="597" type="curve" smooth="no"/>
      <point x="490" y="607"/>
      <point x="451" y="639"/>
      <point x="451" y="701" type="curve" smooth="yes"/>
      <point x="451" y="784"/>
      <point x="495" y="886"/>
      <point x="508" y="968" type="curve" smooth="no"/>
      <point x="505" y="965"/>
      <point x="498" y="960"/>
      <point x="492" y="955" type="curve" smooth="yes"/>
      <point x="418" y="884"/>
      <point x="325" y="764"/>
      <point x="242" y="758" type="curve" smooth="no"/>
      <point x="194" y="771"/>
      <point x="156" y="819"/>
      <point x="144" y="869" type="curve" smooth="no"/>
      <point x="154" y="991"/>
      <point x="355" y="997"/>
      <point x="468" y="1045" type="curve" smooth="no"/>
      <point x="352" y="1094"/>
      <point x="149" y="1102"/>
      <point x="144" y="1222" type="curve" smooth="no"/>
      <point x="156" y="1271"/>
      <point x="194" y="1321"/>
      <point x="242" y="1334" type="curve" smooth="no"/>
      <point x="264" y="1332"/>
      <point x="287" y="1323"/>
      <point x="306" y="1310" type="curve" smooth="no"/>
      <point x="377" y="1267"/>
      <point x="447" y="1171"/>
      <point x="511" y="1120" type="curve" smooth="no"/>
      <point x="499" y="1215"/>
      <point x="451" y="1323"/>
      <point x="451" y="1417" type="curve" smooth="no"/>
      <point x="467" y="1467"/>
      <point x="516" y="1495"/>
      <point x="572" y="1495" type="curve" smooth="no"/>
      <point x="614" y="1486"/>
      <point x="656" y="1450"/>
      <point x="656" y="1392" type="curve" smooth="yes"/>
      <point x="656" y="1306"/>
      <point x="609" y="1206"/>
      <point x="594" y="1120" type="curve" smooth="no"/>
      <point x="597" y="1123"/>
      <point x="606" y="1128"/>
      <point x="612" y="1133" type="curve" smooth="yes"/>
      <point x="686" y="1202"/>
      <point x="774" y="1328"/>
      <point x="862" y="1334" type="curve" smooth="no"/>
      <point x="910" y="1321"/>
      <point x="950" y="1271"/>
      <point x="961" y="1222" type="curve" smooth="no"/>
      <point x="956" y="1102"/>
      <point x="747" y="1094"/>
      <point x="636" y="1045" type="curve" smooth="no"/>
      <point x="748" y="994"/>
      <point x="952" y="992"/>
      <point x="961" y="869" type="curve" smooth="no"/>
      <point x="950" y="819"/>
      <point x="908" y="771"/>
      <point x="862" y="758" type="curve" smooth="no"/>
      <point x="840" y="760"/>
      <point x="817" y="766"/>
      <point x="798" y="780" type="curve" smooth="no"/>
      <point x="729" y="822"/>
      <point x="656" y="915"/>
      <point x="595" y="968" type="curve" smooth="no"/>
      <point x="611" y="878"/>
      <point x="657" y="765"/>
      <point x="657" y="675" type="curve" smooth="no"/>
      <point x="641" y="624"/>
      <point x="588" y="597"/>
    </contour>
  </outline>
</glyph>
<glyph name="plus" format="1">
  <advance width="1634"/>
  <unicode hex="002b"/>
  <outline>
    <contour>
      <point x="682" y="14" type="line" smooth="no"/>
      <point x="682" y="441" type="line" smooth="no"/>
      <point x="188" y="441" type="line" smooth="no"/>
      <point x="188" y="708" type="line" smooth="no"/>
      <point x="682" y="708" type="line" smooth="no"/>
      <point x="682" y="1154" type="line" smooth="no"/>
      <point x="959" y="1154" type="line" smooth="no"/>
      <point x="959" y="708" type="line" smooth="no"/>
      <point x="1451" y="708" type="line" smooth="no"/>
      <point x="1451" y="441" type="line" smooth="no"/>
      <point x="959" y="441" type="line" smooth="no"/>
      <point x="959" y="14" type="line" smooth="no"/>
    </contour>
  </outline>
</glyph>
<glyph name="four" format="1">
  <advance width="1325"/>
  <unicode hex="0034"/>
  <outline>
    <contour>
      <point x="414" y="573" type="line" smooth="no"/>
      <point x="696" y="573" type="line" smooth="no"/>
      <point x="696" y="1084" type="line" smooth="no"/>
    </contour>
    <contour>
      <point x="696" y="0" type="line" smooth="no"/>
      <point x="696" y="267" type="line" smooth="no"/>
      <point x="26" y="267" type="line" smooth="no"/>
      <point x="26" y="578" type="line" smooth="no"/>
      <point x="522" y="1481" type="line" smooth="no"/>
      <point x="1135" y="1481" type="line" smooth="no"/>
      <point x="1135" y="573" type="line" smooth="no"/>
      <point x="1297" y="573" type="line" smooth="no"/>
      <point x="1297" y="267" type="line" smooth="no"/>
      <point x="1135" y="267" type="line" smooth="no"/>
      <point x="1135" y="0" type="line" smooth="no"/>
    </contour>
  </outline>
</glyph>
<glyph name="eight" format="1">
  <advance width="1337"/>
  <unicode hex="0038"/>
  <outline>
    <contour>
      <point x="737" y="914" type="curve" smooth="no"/>
      <point x="790" y="955"/>
      <point x="789" y="989"/>
      <point x="789" y="1045" type="curve" smooth="yes"/>
      <point x="789" y="1133"/>
      <point x="745" y="1194"/>
      <point x="668" y="1194" type="curve" smooth="yes"/>
      <point x="570" y="1194"/>
      <point x="551" y="1117"/>
      <point x="551" y="1071" type="curve" smooth="yes"/>
      <point x="551" y="948"/>
      <point x="554" y="971"/>
    </contour>
    <contour>
      <point x="685" y="287" type="curve" smooth="yes"/>
      <point x="686" y="287"/>
      <point x="825" y="301"/>
      <point x="825" y="421" type="curve" smooth="yes"/>
      <point x="825" y="452"/>
      <point x="865" y="614"/>
      <point x="571" y="619" type="curve" smooth="no"/>
      <point x="515" y="592"/>
      <point x="513" y="532"/>
      <point x="513" y="471" type="curve" smooth="yes"/>
      <point x="513" y="356"/>
      <point x="599" y="287"/>
    </contour>
    <contour>
      <point x="668" y="-28" type="curve" smooth="yes"/>
      <point x="261" y="-28"/>
      <point x="70" y="159"/>
      <point x="70" y="427" type="curve" smooth="yes"/>
      <point x="70" y="563"/>
      <point x="108" y="656"/>
      <point x="272" y="728" type="curve" smooth="no"/>
      <point x="147" y="792"/>
      <point x="105" y="968"/>
      <point x="105" y="1067" type="curve" smooth="yes"/>
      <point x="105" y="1296"/>
      <point x="295" y="1508"/>
      <point x="670" y="1508" type="curve" smooth="yes"/>
      <point x="1031" y="1508"/>
      <point x="1200" y="1351"/>
      <point x="1224" y="1150" type="curve" smooth="no"/>
      <point x="1229" y="1044"/>
      <point x="1175" y="856"/>
      <point x="1032" y="800" type="curve" smooth="no"/>
      <point x="1217" y="721"/>
      <point x="1267" y="587"/>
      <point x="1267" y="420" type="curve" smooth="yes"/>
      <point x="1267" y="160"/>
      <point x="1044" y="-28"/>
    </contour>
  </outline>
</glyph>
<glyph name="nine" format="1">
  <advance width="1262"/>
  <unicode hex="0039"/>
  <outline>
    <contour>
      <point x="632" y="808" type="curve" smooth="no"/>
      <point x="681" y="807"/>
      <point x="734" y="869"/>
      <point x="734" y="966" type="curve" smooth="yes"/>
      <point x="734" y="1150"/>
      <point x="702" y="1214"/>
      <point x="615" y="1214" type="curve" smooth="yes"/>
      <point x="608" y="1214"/>
      <point x="496" y="1206"/>
      <point x="496" y="1018" type="curve" smooth="yes"/>
      <point x="496" y="824"/>
      <point x="555" y="808"/>
    </contour>
    <contour>
      <point x="156" y="277" type="curve" smooth="no"/>
      <point x="268" y="268"/>
      <point x="582" y="298"/>
      <point x="648" y="549" type="curve" smooth="no"/>
      <point x="558" y="504"/>
      <point x="469" y="506"/>
      <point x="430" y="506" type="curve" smooth="yes"/>
      <point x="298" y="506"/>
      <point x="43" y="587"/>
      <point x="43" y="979" type="curve" smooth="yes"/>
      <point x="43" y="1304"/>
      <point x="271" y="1517"/>
      <point x="612" y="1517" type="curve" smooth="yes"/>
      <point x="963" y="1517"/>
      <point x="1182" y="1304"/>
      <point x="1182" y="871" type="curve" smooth="no"/>
      <point x="1173" y="337"/>
      <point x="911" y="12"/>
      <point x="221" y="14" type="curve" smooth="no"/>
      <point x="194" y="131"/>
      <point x="186" y="172"/>
    </contour>
    <contour>
      <point x="156" y="277" type="curve" smooth="no"/>
      <point x="154" y="283"/>
      <point x="153" y="289"/>
      <point x="151" y="295" type="curve" smooth="no"/>
      <point x="99" y="291"/>
      <point x="111" y="281"/>
    </contour>
  </outline>
</glyph>
<glyph name="B" format="1">
  <advance width="1504"/>
  <unicode hex="0042"/>
  <outline>
    <contour>
      <point x="604" y="891" type="line" smooth="no"/>
      <point x="809" y="891"/>
      <point x="913" y="889"/>
      <point x="913" y="1028" type="curve" smooth="yes"/>
      <point x="913" y="1163"/>
      <point x="811" y="1164"/>
      <point x="604" y="1164" type="curve" smooth="no"/>
    </contour>
    <contour>
      <point x="604" y="317" type="line" smooth="no"/>
      <point x="745" y="317" type="line" smooth="yes"/>
      <point x="813" y="317"/>
      <point x="941" y="329"/>
      <point x="941" y="455" type="curve" smooth="yes"/>
      <point x="941" y="616"/>
      <point x="782" y="607"/>
      <point x="604" y="606" type="curve" smooth="no"/>
    </contour>
    <contour>
      <point x="146" y="0" type="line" smooth="no"/>
      <point x="146" y="1481" type="line" smooth="no"/>
      <point x="568" y="1481" type="line" smooth="yes"/>
      <point x="1033" y="1481"/>
      <point x="1328" y="1427"/>
      <point x="1328" y="1069" type="curve" smooth="yes"/>
      <point x="1328" y="946"/>
      <point x="1265" y="838"/>
      <point x="1146" y="781" type="curve" smooth="no"/>
      <point x="1146" y="773" type="line" smooth="no"/>
      <point x="1311" y="734"/>
      <point x="1428" y="622"/>
      <point x="1428" y="440" type="curve" smooth="yes"/>
      <point x="1428" y="118"/>
      <point x="1146" y="0"/>
      <point x="811" y="0" type="curve" smooth="yes"/>
    </contour>
  </outline>
</glyph>
<glyph name="H" format="1">
  <advance width="1615"/>
  <unicode hex="0048"/>
  <outline>
    <contour>
      <point x="146" y="0" type="line" smooth="no"/>
      <point x="146" y="1481" type="line" smooth="no"/>
      <point x="607" y="1481" type="line" smooth="no"/>
      <point x="607" y="941" type="line" smooth="no"/>
      <point x="1008" y="941" type="line" smooth="no"/>
      <point x="1008" y="1481" type="line" smooth="no"/>
      <point x="1469" y="1481" type="line" smooth="no"/>
      <point x="1469" y="0" type="line" smooth="no"/>
      <point x="1008" y="0" type="line" smooth="no"/>
      <point x="1008" y="617" type="line" smooth="no"/>
      <point x="607" y="617" type="line" smooth="no"/>
      <point x="607" y="0" type="line" smooth="no"/>
    </contour>
  </outline>
</glyph>
<glyph name="J" format="1">
  <advance width="1221"/>
  <unicode hex="004a"/>
  <outline>
    <contour>
      <point x="425" y="-21" type="curve" smooth="yes"/>
      <point x="237" y="-21"/>
      <point x="102" y="-2"/>
      <point x="-15" y="69" type="curve" smooth="no"/>
      <point x="56" y="396" type="line" smooth="no"/>
      <point x="149" y="355"/>
      <point x="237" y="338"/>
      <point x="316" y="338" type="curve" smooth="yes"/>
      <point x="474" y="338"/>
      <point x="612" y="439"/>
      <point x="612" y="682" type="curve" smooth="yes"/>
      <point x="612" y="1108" type="line" smooth="no"/>
      <point x="327" y="1108" type="line" smooth="no"/>
      <point x="327" y="1481" type="line" smooth="no"/>
      <point x="1074" y="1481" type="line" smooth="no"/>
      <point x="1074" y="473" type="line" smooth="yes"/>
      <point x="1074" y="169"/>
      <point x="767" y="-21"/>
    </contour>
  </outline>
</glyph>
<glyph name="M" format="1">
  <advance width="1914"/>
  <unicode hex="004d"/>
  <outline>
    <contour>
      <point x="146" y="0" type="line" smooth="no"/>
      <point x="146" y="1481" type="line" smooth="no"/>
      <point x="648" y="1481" type="line" smooth="no"/>
      <point x="954" y="707" type="line" smooth="no"/>
      <point x="1262" y="1481" type="line" smooth="no"/>
      <point x="1768" y="1481" type="line" smooth="no"/>
      <point x="1768" y="0" type="line" smooth="no"/>
      <point x="1312" y="0" type="line" smooth="no"/>
      <point x="1312" y="617" type="line" smooth="yes"/>
      <point x="1312" y="690"/>
      <point x="1314" y="785"/>
      <point x="1314" y="785" type="curve" smooth="no"/>
      <point x="1108" y="233" type="line" smooth="no"/>
      <point x="781" y="233" type="line" smooth="no"/>
      <point x="576" y="785" type="line" smooth="no"/>
      <point x="576" y="785"/>
      <point x="580" y="690"/>
      <point x="580" y="617" type="curve" smooth="yes"/>
      <point x="580" y="0" type="line" smooth="no"/>
    </contour>
  </outline>
</glyph>
<glyph name="N" format="1">
  <advance width="1615"/>
  <unicode hex="004e"/>
  <outline>
    <contour>
      <point x="146" y="0" type="line" smooth="no"/>
      <point x="146" y="1481" type="line" smooth="no"/>
      <point x="645" y="1481" type="line" smooth="no"/>
      <point x="645" y="1481"/>
      <point x="1045" y="852"/>
      <point x="1059" y="827" type="curve" smooth="no"/>
      <point x="1050" y="1136" type="line" smooth="no"/>
      <point x="1050" y="1481" type="line" smooth="no"/>
      <point x="1468" y="1481" type="line" smooth="no"/>
      <point x="1468" y="0" type="line" smooth="no"/>
      <point x="1048" y="0" type="line" smooth="no"/>
      <point x="562" y="858" type="line" smooth="no"/>
      <point x="562" y="858"/>
      <point x="566" y="582"/>
      <point x="566" y="504" type="curve" smooth="yes"/>
      <point x="566" y="0" type="line" smooth="no"/>
    </contour>
  </outline>
</glyph>
<glyph name="Q" format="1">
  <advance width="1606"/>
  <unicode hex="0051"/>
  <outline>
    <contour>
      <point x="804" y="-25" type="curve" smooth="yes"/>
      <point x="346" y="-25"/>
      <point x="99" y="243"/>
      <point x="99" y="740" type="curve" smooth="yes"/>
      <point x="99" y="1240"/>
      <point x="349" y="1505"/>
      <point x="804" y="1505" type="curve" smooth="yes"/>
      <point x="1260" y="1505"/>
      <point x="1506" y="1242"/>
      <point x="1506" y="740" type="curve" smooth="yes"/>
      <point x="1506" y="368"/>
      <point x="1369" y="124"/>
      <point x="1108" y="25" type="curve" smooth="no"/>
      <point x="1249" y="-335" type="line" smooth="no"/>
      <point x="1047" y="-423" type="line" smooth="no"/>
      <point x="888" y="-22" type="line" smooth="no"/>
      <point x="861" y="-24"/>
      <point x="833" y="-25"/>
    </contour>
    <contour>
      <point x="964" y="393" type="line" smooth="no"/>
      <point x="1013" y="460"/>
      <point x="1035" y="575"/>
      <point x="1035" y="740" type="curve" smooth="yes"/>
      <point x="1035" y="1037"/>
      <point x="966" y="1158"/>
      <point x="806" y="1158" type="curve" smooth="yes"/>
      <point x="647" y="1158"/>
      <point x="572" y="1041"/>
      <point x="572" y="740" type="curve" smooth="yes"/>
      <point x="572" y="479"/>
      <point x="628" y="352"/>
      <point x="751" y="325" type="curve" smooth="no"/>
      <point x="682" y="498" type="line" smooth="no"/>
      <point x="923" y="498" type="line" smooth="yes"/>
    </contour>
  </outline>
</glyph>
<glyph name="S" format="1">
  <advance width="1406"/>
  <unicode hex="0053"/>
  <outline>
    <contour>
      <point x="672" y="-21" type="curve" smooth="yes"/>
      <point x="422" y="-21"/>
      <point x="232" y="34"/>
      <point x="74" y="124" type="curve" smooth="no"/>
      <point x="136" y="469" type="line" smooth="no"/>
      <point x="212" y="469" type="line" smooth="no"/>
      <point x="362" y="376"/>
      <point x="503" y="314"/>
      <point x="668" y="314" type="curve" smooth="yes"/>
      <point x="696" y="314"/>
      <point x="872" y="300"/>
      <point x="872" y="423" type="curve" smooth="yes"/>
      <point x="872" y="579"/>
      <point x="659" y="528"/>
      <point x="458" y="584" type="curve" smooth="yes"/>
      <point x="200" y="656"/>
      <point x="109" y="790"/>
      <point x="109" y="1027" type="curve" smooth="yes"/>
      <point x="109" y="1296"/>
      <point x="372" y="1503"/>
      <point x="738" y="1503" type="curve" smooth="yes"/>
      <point x="935" y="1503"/>
      <point x="1137" y="1454"/>
      <point x="1285" y="1382" type="curve" smooth="no"/>
      <point x="1227" y="1033" type="line" smooth="no"/>
      <point x="1150" y="1033" type="line" smooth="no"/>
      <point x="1039" y="1114"/>
      <point x="896" y="1167"/>
      <point x="727" y="1167" type="curve" smooth="yes"/>
      <point x="634" y="1167"/>
      <point x="578" y="1139"/>
      <point x="578" y="1071" type="curve" smooth="yes"/>
      <point x="578" y="987"/>
      <point x="641" y="981"/>
      <point x="894" y="935" type="curve" smooth="no"/>
      <point x="1184" y="884"/>
      <point x="1340" y="722"/>
      <point x="1340" y="483" type="curve" smooth="yes"/>
      <point x="1340" y="179"/>
      <point x="1083" y="-21"/>
    </contour>
  </outline>
</glyph>
<glyph name="W" format="1">
  <advance width="2096"/>
  <unicode hex="0057"/>
  <outline>
    <contour>
      <point x="382" y="0" type="line" smooth="no"/>
      <point x="4" y="1481" type="line" smooth="no"/>
      <point x="487" y="1481" type="line" smooth="no"/>
      <point x="561" y="1114"/>
      <point x="530" y="1169"/>
      <point x="604" y="801" type="curve" smooth="no"/>
      <point x="630" y="623" type="line" smooth="no"/>
      <point x="633" y="623" type="line" smooth="no"/>
      <point x="695" y="865" type="line" smooth="no"/>
      <point x="788" y="1211"/>
      <point x="760" y="1134"/>
      <point x="853" y="1481" type="curve" smooth="no"/>
      <point x="1245" y="1481" type="line" smooth="no"/>
      <point x="1415" y="784" type="line" smooth="yes"/>
      <point x="1437" y="691"/>
      <point x="1431" y="699"/>
      <point x="1455" y="625" type="curve" smooth="no"/>
      <point x="1478" y="727"/>
      <point x="1459" y="673"/>
      <point x="1482" y="777" type="curve" smooth="yes"/>
      <point x="1562" y="1151"/>
      <point x="1533" y="1108"/>
      <point x="1614" y="1481" type="curve" smooth="no"/>
      <point x="2091" y="1481" type="line" smooth="no"/>
      <point x="1715" y="0" type="line" smooth="no"/>
      <point x="1231" y="0" type="line" smooth="no"/>
      <point x="1114" y="426"/>
      <point x="1121" y="449"/>
      <point x="1040" y="703" type="curve" smooth="no"/>
      <point x="862" y="0" type="line" smooth="no"/>
    </contour>
  </outline>
</glyph>
<glyph name="X" format="1">
  <advance width="1401"/>
  <unicode hex="0058"/>
  <outline>
    <contour>
      <point x="-25" y="0" type="line" smooth="no"/>
      <point x="417" y="755" type="line" smooth="no"/>
      <point x="-4" y="1481" type="line" smooth="no"/>
      <point x="539" y="1481" type="line" smooth="no"/>
      <point x="616" y="1345"/>
      <point x="520" y="1460"/>
      <point x="597" y="1326" type="curve" smooth="yes"/>
      <point x="646" y="1241"/>
      <point x="659" y="1214"/>
      <point x="708" y="1128" type="curve" smooth="no"/>
      <point x="758" y="1209"/>
      <point x="766" y="1232"/>
      <point x="819" y="1319" type="curve" smooth="no"/>
      <point x="879" y="1481" type="line" smooth="no"/>
      <point x="1386" y="1481" type="line" smooth="no"/>
      <point x="984" y="780" type="line" smooth="no"/>
      <point x="1439" y="0" type="line" smooth="no"/>
      <point x="900" y="0" type="line" smooth="no"/>
      <point x="785" y="241" type="line" smooth="no"/>
      <point x="738" y="315"/>
      <point x="734" y="329"/>
      <point x="688" y="403" type="curve" smooth="no"/>
      <point x="641" y="326"/>
      <point x="640" y="311"/>
      <point x="593" y="233" type="curve" smooth="no"/>
      <point x="582" y="217"/>
      <point x="482" y="0"/>
      <point x="482" y="0" type="curve" smooth="no"/>
    </contour>
  </outline>
</glyph>
<glyph name="asciicircum" format="1">
  <advance width="1588"/>
  <unicode hex="005e"/>
  <outline>
    <contour>
      <point x="185" y="603" type="line" smooth="no"/>
      <point x="666" y="1399" type="line" smooth="no"/>
      <point x="899" y="1399" type="line" smooth="no"/>
      <point x="1407" y="606" type="line" smooth="no"/>
      <point x="1116" y="606" type="line" smooth="no"/>
      <point x="781" y="1146" type="line" smooth="no"/>
      <point x="475" y="603" type="line" smooth="no"/>
    </contour>
  </outline>
</glyph>
<glyph name="a" format="1">
  <advance width="1184"/>
  <unicode hex="0061"/>
  <outline>
    <contour>
      <point x="536" y="225" type="curve" smooth="yes"/>
      <point x="580" y="225"/>
      <point x="701" y="246"/>
      <point x="701" y="493" type="curve" smooth="no"/>
      <point x="564" y="476"/>
      <point x="448" y="466"/>
      <point x="448" y="332" type="curve" smooth="yes"/>
      <point x="448" y="290"/>
      <point x="475" y="225"/>
    </contour>
    <contour>
      <point x="380" y="-15" type="curve" smooth="yes"/>
      <point x="181" y="-15"/>
      <point x="52" y="124"/>
      <point x="52" y="306" type="curve" smooth="yes"/>
      <point x="52" y="621"/>
      <point x="343" y="654"/>
      <point x="701" y="654" type="curve" smooth="no"/>
      <point x="701" y="749"/>
      <point x="675" y="786"/>
      <point x="506" y="786" type="curve" smooth="yes"/>
      <point x="403" y="786"/>
      <point x="252" y="754"/>
      <point x="197" y="729" type="curve" smooth="no"/>
      <point x="131" y="986" type="line" smooth="no"/>
      <point x="162" y="999"/>
      <point x="363" y="1059"/>
      <point x="521" y="1059" type="curve" smooth="yes"/>
      <point x="882" y="1059"/>
      <point x="1087" y="975"/>
      <point x="1087" y="733" type="curve" smooth="yes"/>
      <point x="1087" y="0" type="line" smooth="no"/>
      <point x="699" y="0" type="line" smooth="no"/>
      <point x="699" y="219" type="line" smooth="no"/>
      <point x="636" y="56"/>
      <point x="525" y="-15"/>
    </contour>
  </outline>
</glyph>
<glyph name="b" format="1">
  <advance width="1311"/>
  <unicode hex="0062"/>
  <outline>
    <contour>
      <point x="605" y="284" type="curve" smooth="yes"/>
      <point x="775" y="284"/>
      <point x="826" y="368"/>
      <point x="826" y="527" type="curve" smooth="yes"/>
      <point x="826" y="679"/>
      <point x="794" y="761"/>
      <point x="651" y="761" type="curve" smooth="yes"/>
      <point x="562" y="761"/>
      <point x="489" y="683"/>
      <point x="509" y="700" type="curve"/>
      <point x="509" y="292" type="line"/>
      <point x="528" y="293"/>
      <point x="583" y="284"/>
    </contour>
    <contour>
      <point x="817" y="-16" type="curve" smooth="yes"/>
      <point x="695" y="-16"/>
      <point x="588" y="44"/>
      <point x="509" y="132" type="curve"/>
      <point x="509" y="0" type="line"/>
      <point x="121" y="0" type="line"/>
      <point x="121" y="1441" type="line"/>
      <point x="509" y="1441" type="line"/>
      <point x="509" y="936" type="line"/>
      <point x="611" y="1005"/>
      <point x="701" y="1061"/>
      <point x="836" y="1061" type="curve" smooth="yes"/>
      <point x="1135" y="1061"/>
      <point x="1229" y="848"/>
      <point x="1229" y="522" type="curve" smooth="yes"/>
      <point x="1229" y="230"/>
      <point x="1096" y="-16"/>
    </contour>
  </outline>
</glyph>
<glyph name="c" format="1">
  <advance width="1109"/>
  <unicode hex="0063"/>
  <outline>
    <contour>
      <point x="666" y="-25" type="curve" smooth="yes"/>
      <point x="360" y="-25"/>
      <point x="82" y="138"/>
      <point x="82" y="518" type="curve" smooth="yes"/>
      <point x="82" y="922"/>
      <point x="382" y="1061"/>
      <point x="659" y="1061" type="curve" smooth="yes"/>
      <point x="783" y="1061"/>
      <point x="922" y="1029"/>
      <point x="1058" y="954" type="curve" smooth="no"/>
      <point x="1000" y="697" type="line" smooth="no"/>
      <point x="943" y="743"/>
      <point x="808" y="785"/>
      <point x="728" y="785" type="curve" smooth="yes"/>
      <point x="604" y="785"/>
      <point x="485" y="716"/>
      <point x="485" y="517" type="curve" smooth="yes"/>
      <point x="485" y="307"/>
      <point x="628" y="255"/>
      <point x="732" y="255" type="curve" smooth="yes"/>
      <point x="844" y="255"/>
      <point x="952" y="301"/>
      <point x="1004" y="335" type="curve" smooth="no"/>
      <point x="1063" y="83" type="line" smooth="no"/>
      <point x="956" y="24"/>
      <point x="810" y="-25"/>
    </contour>
  </outline>
</glyph>
<glyph name="d" format="1">
  <advance width="1303"/>
  <unicode hex="0064"/>
  <outline>
    <contour>
      <point x="697" y="258" type="curve" smooth="yes"/>
      <point x="730" y="258"/>
      <point x="757" y="261"/>
      <point x="798" y="259" type="curve" smooth="no"/>
      <point x="798" y="729" type="line" smooth="no"/>
      <point x="773" y="750"/>
      <point x="734" y="778"/>
      <point x="647" y="778" type="curve" smooth="yes"/>
      <point x="540" y="778"/>
      <point x="483" y="693"/>
      <point x="483" y="506" type="curve" smooth="yes"/>
      <point x="483" y="364"/>
      <point x="553" y="258"/>
    </contour>
    <contour>
      <point x="496" y="-18" type="curve" smooth="yes"/>
      <point x="219" y="-18"/>
      <point x="82" y="218"/>
      <point x="82" y="536" type="curve" smooth="yes"/>
      <point x="82" y="847"/>
      <point x="193" y="1059"/>
      <point x="511" y="1059" type="curve" smooth="yes"/>
      <point x="621" y="1059"/>
      <point x="696" y="1024"/>
      <point x="798" y="961" type="curve" smooth="no"/>
      <point x="798" y="1441" type="line" smooth="no"/>
      <point x="1186" y="1441" type="line" smooth="no"/>
      <point x="1186" y="0" type="line" smooth="no"/>
      <point x="798" y="0" type="line" smooth="no"/>
      <point x="798" y="129" type="line" smooth="no"/>
      <point x="735" y="37"/>
      <point x="617" y="-18"/>
    </contour>
  </outline>
</glyph>
<glyph name="f" format="1">
  <advance width="708"/>
  <unicode hex="0066"/>
  <outline>
    <contour>
      <point x="124" y="0" type="line" smooth="no"/>
      <point x="124" y="793" type="line" smooth="no"/>
      <point x="-1" y="793" type="line" smooth="no"/>
      <point x="-1" y="1035" type="line" smooth="no"/>
      <point x="124" y="1035" type="line" smooth="no"/>
      <point x="124" y="1077" type="line" smooth="yes"/>
      <point x="124" y="1328"/>
      <point x="279" y="1444"/>
      <point x="548" y="1444" type="curve" smooth="yes"/>
      <point x="622" y="1444"/>
      <point x="705" y="1436"/>
      <point x="762" y="1430" type="curve" smooth="no"/>
      <point x="762" y="1166" type="line" smooth="no"/>
      <point x="681" y="1174"/>
      <point x="649" y="1175"/>
      <point x="622" y="1175" type="curve" smooth="yes"/>
      <point x="564" y="1175"/>
      <point x="502" y="1137"/>
      <point x="502" y="1035" type="curve" smooth="no"/>
      <point x="746" y="1035" type="line" smooth="no"/>
      <point x="746" y="793" type="line" smooth="no"/>
      <point x="511" y="793" type="line" smooth="no"/>
      <point x="511" y="0" type="line" smooth="no"/>
    </contour>
  </outline>
</glyph>
<glyph name="g" format="1">
  <advance width="1233"/>
  <unicode hex="0067"/>
  <outline>
    <contour>
      <point x="631" y="286" type="curve" smooth="yes"/>
      <point x="684" y="286"/>
      <point x="709" y="307"/>
      <point x="740" y="320" type="curve" smooth="no"/>
      <point x="740" y="755" type="line" smooth="no"/>
      <point x="697" y="773"/>
      <point x="664" y="765"/>
      <point x="663" y="765" type="curve" smooth="yes"/>
      <point x="535" y="765"/>
      <point x="483" y="657"/>
      <point x="483" y="551" type="curve" smooth="yes"/>
      <point x="483" y="378"/>
      <point x="481" y="286"/>
    </contour>
    <contour>
      <point x="547" y="-408" type="curve" smooth="yes"/>
      <point x="394" y="-408"/>
      <point x="254" y="-363"/>
      <point x="159" y="-325" type="curve" smooth="no"/>
      <point x="222" y="-51" type="line" smooth="no"/>
      <point x="331" y="-99"/>
      <point x="456" y="-120"/>
      <point x="510" y="-120" type="curve" smooth="yes"/>
      <point x="689" y="-120"/>
      <point x="747" y="-96"/>
      <point x="748" y="79" type="curve" smooth="no"/>
      <point x="748" y="113" type="line" smooth="no"/>
      <point x="723" y="46"/>
      <point x="615" y="0"/>
      <point x="535" y="0" type="curve" smooth="yes"/>
      <point x="213" y="0"/>
      <point x="82" y="195"/>
      <point x="82" y="542" type="curve" smooth="yes"/>
      <point x="82" y="843"/>
      <point x="196" y="1060"/>
      <point x="469" y="1060" type="curve" smooth="yes"/>
      <point x="577" y="1060"/>
      <point x="651" y="1025"/>
      <point x="740" y="904" type="curve" smooth="no"/>
      <point x="736" y="1035" type="line" smooth="no"/>
      <point x="1140" y="1035" type="line" smooth="no"/>
      <point x="1140" y="74" type="line" smooth="yes"/>
      <point x="1140" y="-298"/>
      <point x="842" y="-408"/>
    </contour>
  </outline>
</glyph>
<glyph name="i" format="1">
  <advance width="693"/>
  <unicode hex="0069"/>
  <outline>
    <contour>
      <point x="346" y="1192" type="curve" smooth="yes"/>
      <point x="197" y="1192"/>
      <point x="124" y="1298"/>
      <point x="124" y="1405" type="curve" smooth="yes"/>
      <point x="124" y="1510"/>
      <point x="198" y="1619"/>
      <point x="346" y="1619" type="curve" smooth="yes"/>
      <point x="495" y="1619"/>
      <point x="569" y="1509"/>
      <point x="569" y="1403" type="curve" smooth="yes"/>
      <point x="569" y="1296"/>
      <point x="494" y="1192"/>
    </contour>
    <contour>
      <point x="153" y="0" type="line" smooth="no"/>
      <point x="153" y="1038" type="line" smooth="no"/>
      <point x="541" y="1038" type="line" smooth="no"/>
      <point x="541" y="0" type="line" smooth="no"/>
    </contour>
  </outline>
</glyph>
<glyph name="k" format="1">
  <advance width="1239"/>
  <unicode hex="006b"/>
  <outline>
    <contour>
      <point x="121" y="0" type="line" smooth="no"/>
      <point x="121" y="1441" type="line" smooth="no"/>
      <point x="509" y="1441" type="line" smooth="no"/>
      <point x="509" y="655" type="line" smooth="no"/>
      <point x="779" y="1038" type="line" smooth="no"/>
      <point x="1203" y="1038" type="line" smooth="no"/>
      <point x="1203" y="994" type="line" smooth="no"/>
      <point x="912" y="621" type="line" smooth="no"/>
      <point x="1230" y="87" type="line" smooth="no"/>
      <point x="1230" y="0" type="line" smooth="no"/>
      <point x="801" y="0" type="line" smooth="no"/>
      <point x="576" y="445" type="line" smooth="no"/>
      <point x="509" y="355" type="line" smooth="no"/>
      <point x="509" y="0" type="line" smooth="no"/>
    </contour>
  </outline>
</glyph>
<glyph name="m" format="1">
  <advance width="1870"/>
  <unicode hex="006d"/>
  <outline>
    <contour>
      <point x="121" y="0" type="line" smooth="no"/>
      <point x="121" y="1038" type="line" smooth="no"/>
      <point x="509" y="1038" type="line" smooth="no"/>
      <point x="509" y="850" type="line" smooth="no"/>
      <point x="585" y="983"/>
      <point x="701" y="1059"/>
      <point x="829" y="1059" type="curve" smooth="yes"/>
      <point x="944" y="1059"/>
      <point x="1053" y="1002"/>
      <point x="1101" y="852" type="curve" smooth="no"/>
      <point x="1168" y="1004"/>
      <point x="1315" y="1059"/>
      <point x="1438" y="1059" type="curve" smooth="yes"/>
      <point x="1620" y="1059"/>
      <point x="1774" y="948"/>
      <point x="1774" y="682" type="curve" smooth="yes"/>
      <point x="1774" y="0" type="line" smooth="no"/>
      <point x="1386" y="0" type="line" smooth="no"/>
      <point x="1386" y="486" type="line" smooth="yes"/>
      <point x="1386" y="675"/>
      <point x="1376" y="735"/>
      <point x="1251" y="735" type="curve" smooth="yes"/>
      <point x="1224" y="735"/>
      <point x="1141" y="700"/>
      <point x="1141" y="661" type="curve" smooth="yes"/>
      <point x="1141" y="0" type="line" smooth="no"/>
      <point x="754" y="0" type="line" smooth="no"/>
      <point x="754" y="511" type="line" smooth="yes"/>
      <point x="754" y="679"/>
      <point x="734" y="735"/>
      <point x="621" y="735" type="curve" smooth="yes"/>
      <point x="574" y="735"/>
      <point x="509" y="716"/>
      <point x="509" y="661" type="curve" smooth="yes"/>
      <point x="509" y="0" type="line" smooth="no"/>
    </contour>
  </outline>
</glyph>
<glyph name="o" format="1">
  <advance width="1258"/>
  <unicode hex="006f"/>
  <outline>
    <contour>
      <point x="629" y="-28" type="curve" smooth="yes"/>
      <point x="239" y="-28"/>
      <point x="80" y="180"/>
      <point x="80" y="517" type="curve" smooth="yes"/>
      <point x="80" y="855"/>
      <point x="236" y="1059"/>
      <point x="629" y="1059" type="curve" smooth="yes"/>
      <point x="1015" y="1059"/>
      <point x="1178" y="853"/>
      <point x="1178" y="516" type="curve" smooth="yes"/>
      <point x="1178" y="181"/>
      <point x="1015" y="-28"/>
    </contour>
    <contour>
      <point x="633" y="249" type="curve" smooth="yes"/>
      <point x="721" y="249"/>
      <point x="774" y="303"/>
      <point x="774" y="516" type="curve" smooth="yes"/>
      <point x="774" y="758"/>
      <point x="701" y="787"/>
      <point x="629" y="787" type="curve" smooth="yes"/>
      <point x="555" y="787"/>
      <point x="483" y="771"/>
      <point x="483" y="515" type="curve" smooth="yes"/>
      <point x="483" y="264"/>
      <point x="550" y="249"/>
    </contour>
  </outline>
</glyph>
<glyph name="s" format="1">
  <advance width="1097"/>
  <unicode hex="0073"/>
  <outline>
    <contour>
      <point x="493" y="-25" type="curve" smooth="yes"/>
      <point x="336" y="-25"/>
      <point x="188" y="16"/>
      <point x="86" y="71" type="curve" smooth="no"/>
      <point x="129" y="337" type="line" smooth="no"/>
      <point x="185" y="337" type="line" smooth="no"/>
      <point x="243" y="289"/>
      <point x="347" y="229"/>
      <point x="500" y="229" type="curve" smooth="yes"/>
      <point x="547" y="229"/>
      <point x="629" y="236"/>
      <point x="629" y="283" type="curve" smooth="yes"/>
      <point x="629" y="351"/>
      <point x="508" y="348"/>
      <point x="369" y="382" type="curve" smooth="no"/>
      <point x="137" y="437"/>
      <point x="85" y="512"/>
      <point x="85" y="703" type="curve" smooth="yes"/>
      <point x="85" y="904"/>
      <point x="304" y="1061"/>
      <point x="617" y="1061" type="curve" smooth="yes"/>
      <point x="771" y="1061"/>
      <point x="878" y="1031"/>
      <point x="989" y="977" type="curve" smooth="no"/>
      <point x="943" y="706" type="line" smooth="no"/>
      <point x="899" y="706" type="line" smooth="no"/>
      <point x="828" y="757"/>
      <point x="759" y="803"/>
      <point x="641" y="803" type="curve" smooth="yes"/>
      <point x="547" y="803"/>
      <point x="493" y="768"/>
      <point x="493" y="734" type="curve" smooth="yes"/>
      <point x="493" y="702"/>
      <point x="492" y="702"/>
      <point x="664" y="664" type="curve" smooth="no"/>
      <point x="944" y="600"/>
      <point x="1046" y="537"/>
      <point x="1046" y="339" type="curve" smooth="yes"/>
      <point x="1046" y="130"/>
      <point x="829" y="-25"/>
    </contour>
  </outline>
</glyph>
<glyph name="t" format="1">
  <advance width="777"/>
  <unicode hex="0074"/>
  <outline>
    <contour>
      <point x="475" y="-13" type="curve" smooth="yes"/>
      <point x="226" y="-13"/>
      <point x="118" y="89"/>
      <point x="118" y="328" type="curve" smooth="yes"/>
      <point x="118" y="783" type="line" smooth="no"/>
      <point x="-7" y="783" type="line" smooth="no"/>
      <point x="-7" y="1038" type="line" smooth="no"/>
      <point x="118" y="1038" type="line" smooth="no"/>
      <point x="118" y="1295" type="line" smooth="no"/>
      <point x="506" y="1365" type="line" smooth="no"/>
      <point x="506" y="1038" type="line" smooth="no"/>
      <point x="726" y="1038" type="line" smooth="no"/>
      <point x="726" y="783" type="line" smooth="no"/>
      <point x="506" y="783" type="line" smooth="no"/>
      <point x="506" y="376" type="line" smooth="yes"/>
      <point x="506" y="286"/>
      <point x="571" y="264"/>
      <point x="634" y="264" type="curve" smooth="yes"/>
      <point x="645" y="264"/>
      <point x="670" y="267"/>
      <point x="726" y="275" type="curve" smooth="no"/>
      <point x="726" y="5" type="line" smooth="no"/>
      <point x="661" y="-8"/>
      <point x="585" y="-13"/>
    </contour>
  </outline>
</glyph>
<glyph name="u" format="1">
  <advance width="1253"/>
  <unicode hex="0075"/>
  <outline>
    <contour>
      <point x="441" y="-21" type="curve" smooth="yes"/>
      <point x="273" y="-21"/>
      <point x="99" y="93"/>
      <point x="99" y="339" type="curve" smooth="yes"/>
      <point x="99" y="1038" type="line" smooth="no"/>
      <point x="502" y="1038" type="line" smooth="no"/>
      <point x="502" y="549" type="line" smooth="yes"/>
      <point x="502" y="377"/>
      <point x="523" y="297"/>
      <point x="641" y="297" type="curve" smooth="yes"/>
      <point x="676" y="297"/>
      <point x="746" y="324"/>
      <point x="746" y="383" type="curve" smooth="yes"/>
      <point x="746" y="1038" type="line" smooth="no"/>
      <point x="1133" y="1038" type="line" smooth="no"/>
      <point x="1133" y="0" type="line" smooth="no"/>
      <point x="746" y="0" type="line" smooth="no"/>
      <point x="746" y="171" type="line" smooth="no"/>
      <point x="683" y="28"/>
      <point x="556" y="-21"/>
    </contour>
  </outline>
</glyph>
<glyph name="w" format="1">
  <advance width="1732"/>
  <unicode hex="0077"/>
  <outline>
    <contour>
      <point x="309" y="0" type="line"/>
      <point x="-8" y="1038" type="line"/>
      <point x="398" y="1038" type="line"/>
      <point x="398" y="1038"/>
      <point x="494" y="545"/>
      <point x="514" y="455" type="curve"/>
      <point x="521" y="395" type="line"/>
      <point x="522" y="395" type="line"/>
      <point x="540" y="460" type="line" smooth="yes"/>
      <point x="626" y="769"/>
      <point x="722" y="1038"/>
      <point x="722" y="1038" type="curve"/>
      <point x="1032" y="1038" type="line"/>
      <point x="1032" y="1038"/>
      <point x="1152" y="589"/>
      <point x="1172" y="515" type="curve" smooth="yes"/>
      <point x="1192" y="440"/>
      <point x="1196" y="434"/>
      <point x="1206" y="404" type="curve"/>
      <point x="1217" y="459"/>
      <point x="1211" y="447"/>
      <point x="1226" y="501" type="curve"/>
      <point x="1334" y="1038" type="line"/>
      <point x="1740" y="1038" type="line"/>
      <point x="1421" y="0" type="line"/>
      <point x="1022" y="0" type="line"/>
      <point x="866" y="650" type="line"/>
      <point x="864" y="650" type="line"/>
      <point x="703" y="0" type="line"/>
    </contour>
  </outline>
</glyph>
<glyph name="brokenbar" format="1">
  <advance width="477"/>
  <unicode hex="00a6"/>
  <outline>
    <contour>
      <point x="108" y="630" type="line" smooth="no"/>
      <point x="108" y="1308" type="line" smooth="no"/>
      <point x="370" y="1308" type="line" smooth="no"/>
      <point x="370" y="630" type="line" smooth="no"/>
    </contour>
    <contour>
      <point x="108" y="-339" type="line" smooth="no"/>
      <point x="108" y="339" type="line" smooth="no"/>
      <point x="370" y="339" type="line" smooth="no"/>
      <point x="370" y="-339" type="line" smooth="no"/>
    </contour>
  </outline>
</glyph>
<glyph name="dieresis" format="1">
  <advance width="903"/>
  <unicode hex="00a8"/>
  <outline>
    <contour>
      <point x="497" y="1160" type="line" smooth="no"/>
      <point x="497" y="1448" type="line" smooth="no"/>
      <point x="763" y="1448" type="line" smooth="no"/>
      <point x="763" y="1160" type="line" smooth="no"/>
    </contour>
    <contour>
      <point x="125" y="1160" type="line" smooth="no"/>
      <point x="125" y="1448" type="line" smooth="no"/>
      <point x="393" y="1448" type="line" smooth="no"/>
      <point x="393" y="1160" type="line" smooth="no"/>
    </contour>
  </outline>
</glyph>
<glyph name="uni00AD" format="1">
  <advance width="800"/>
  <unicode hex="00ad"/>
  <outline>
    <contour>
      <point x="110" y="438" type="line" smooth="no"/>
      <point x="110" y="637" type="line" smooth="no"/>
      <point x="693" y="637" type="line" smooth="no"/>
      <point x="693" y="438" type="line" smooth="no"/>
    </contour>
  </outline>
</glyph>
<glyph name="macron" format="1">
  <advance width="318"/>
  <unicode hex="00af"/>
  <outline>
    <contour>
      <point x="-123" y="1111" type="line" smooth="no"/>
      <point x="-123" y="1343" type="line" smooth="no"/>
      <point x="439" y="1343" type="line" smooth="no"/>
      <point x="439" y="1111" type="line" smooth="no"/>
    </contour>
  </outline>
</glyph>
<glyph name="onequarter" format="1">
  <advance width="1620"/>
  <unicode hex="00bc"/>
  <outline>
    <contour>
      <point x="152" y="557" type="line" smooth="no"/>
      <point x="152" y="737" type="line" smooth="no"/>
      <point x="263" y="737" type="line" smooth="no"/>
      <point x="263" y="1144" type="line" smooth="no"/>
      <point x="97" y="1125" type="line" smooth="no"/>
      <point x="97" y="1275" type="line" smooth="no"/>
      <point x="203" y="1282"/>
      <point x="278" y="1303"/>
      <point x="291" y="1381" type="curve" smooth="no"/>
      <point x="507" y="1381" type="line" smooth="no"/>
      <point x="507" y="737" type="line" smooth="no"/>
      <point x="612" y="737" type="line" smooth="no"/>
      <point x="612" y="557" type="line" smooth="no"/>
    </contour>
    <contour>
      <point x="1049" y="263" type="line" smooth="no"/>
      <point x="1178" y="263" type="line" smooth="no"/>
      <point x="1178" y="602" type="line" smooth="no"/>
    </contour>
    <contour>
      <point x="370" y="0" type="line" smooth="no"/>
      <point x="1163" y="1430" type="line" smooth="no"/>
      <point x="1291" y="1430" type="line" smooth="no"/>
      <point x="497" y="0" type="line" smooth="no"/>
    </contour>
    <contour>
      <point x="1178" y="0" type="line" smooth="no"/>
      <point x="1178" y="122" type="line" smooth="no"/>
      <point x="862" y="122" type="line" smooth="no"/>
      <point x="862" y="263" type="line" smooth="no"/>
      <point x="1107" y="819" type="line" smooth="no"/>
      <point x="1436" y="819" type="line" smooth="no"/>
      <point x="1436" y="263" type="line" smooth="no"/>
      <point x="1512" y="263" type="line" smooth="no"/>
      <point x="1512" y="122" type="line" smooth="no"/>
      <point x="1436" y="122" type="line" smooth="no"/>
      <point x="1436" y="0" type="line" smooth="no"/>
    </contour>
  </outline>
</glyph>
<glyph name="questiondown" format="1">
  <advance width="1193"/>
  <unicode hex="00bf"/>
  <outline>
    <contour>
      <point x="581" y="1078" type="curve" smooth="yes"/>
      <point x="717" y="1078"/>
      <point x="828" y="967"/>
      <point x="828" y="832" type="curve" smooth="yes"/>
      <point x="828" y="698"/>
      <point x="717" y="587"/>
      <point x="581" y="587" type="curve" smooth="yes"/>
      <point x="447" y="587"/>
      <point x="336" y="698"/>
      <point x="336" y="832" type="curve" smooth="yes"/>
      <point x="336" y="967"/>
      <point x="447" y="1078"/>
    </contour>
    <contour>
      <point x="432" y="502" type="curve" smooth="no"/>
      <point x="707" y="533" type="line" smooth="no"/>
      <point x="551" y="356"/>
      <point x="452" y="240"/>
      <point x="452" y="86" type="curve" smooth="yes"/>
      <point x="452" y="-67"/>
      <point x="565" y="-114"/>
      <point x="647" y="-114" type="curve" smooth="yes"/>
      <point x="778" y="-114"/>
      <point x="924" y="-32"/>
      <point x="972" y="23" type="curve" smooth="no"/>
      <point x="972" y="-322" type="line" smooth="no"/>
      <point x="910" y="-358"/>
      <point x="763" y="-457"/>
      <point x="575" y="-457" type="curve" smooth="yes"/>
      <point x="246" y="-457"/>
      <point x="1" y="-290"/>
      <point x="1" y="-45" type="curve" smooth="yes"/>
      <point x="1" y="274"/>
      <point x="235" y="383"/>
    </contour>
  </outline>
</glyph>
<glyph name="multiply" format="1">
  <advance width="1221"/>
  <unicode hex="00d7"/>
  <outline>
    <contour>
      <point x="266" y="42" type="line" smooth="no"/>
      <point x="163" y="149" type="line" smooth="no"/>
      <point x="509" y="491" type="line" smooth="no"/>
      <point x="163" y="838" type="line" smooth="no"/>
      <point x="266" y="947" type="line" smooth="no"/>
      <point x="614" y="599" type="line" smooth="no"/>
      <point x="957" y="947" type="line" smooth="no"/>
      <point x="1065" y="838" type="line" smooth="no"/>
      <point x="718" y="491" type="line" smooth="no"/>
      <point x="1065" y="149" type="line" smooth="no"/>
      <point x="957" y="42" type="line" smooth="no"/>
      <point x="614" y="389" type="line" smooth="no"/>
    </contour>
  </outline>
</glyph>
<glyph name="Oslash" format="1">
  <advance width="1492"/>
  <unicode hex="00d8"/>
  <outline>
    <contour>
      <point x="751" y="319" type="curve" smooth="yes"/>
      <point x="915" y="319"/>
      <point x="968" y="453"/>
      <point x="968" y="740" type="curve" smooth="yes"/>
      <point x="968" y="816"/>
      <point x="966" y="876"/>
      <point x="967" y="926" type="curve" smooth="no"/>
      <point x="656" y="335" type="line" smooth="no"/>
      <point x="687" y="321"/>
      <point x="718" y="319"/>
    </contour>
    <contour>
      <point x="550" y="495" type="curve" smooth="no"/>
      <point x="880" y="1113" type="line" smooth="no"/>
      <point x="847" y="1144"/>
      <point x="805" y="1158"/>
      <point x="751" y="1158" type="curve" smooth="yes"/>
      <point x="593" y="1158"/>
      <point x="529" y="1041"/>
      <point x="529" y="740" type="curve" smooth="yes"/>
      <point x="529" y="636"/>
      <point x="536" y="557"/>
    </contour>
    <contour>
      <point x="750" y="-25" type="curve" smooth="yes"/>
      <point x="645" y="-25"/>
      <point x="550" y="-12"/>
      <point x="462" y="12" type="curve" smooth="no"/>
      <point x="436" y="-38" type="line" smooth="no"/>
      <point x="244" y="-38" type="line" smooth="no"/>
      <point x="309" y="90" type="line" smooth="no"/>
      <point x="143" y="217"/>
      <point x="56" y="440"/>
      <point x="56" y="740" type="curve" smooth="yes"/>
      <point x="56" y="1240"/>
      <point x="294" y="1505"/>
      <point x="750" y="1505" type="curve" smooth="yes"/>
      <point x="878" y="1505"/>
      <point x="986" y="1484"/>
      <point x="1081" y="1447" type="curve" smooth="no"/>
      <point x="1117" y="1516" type="line" smooth="no"/>
      <point x="1315" y="1516" type="line" smooth="no"/>
      <point x="1226" y="1355" type="line" smooth="no"/>
      <point x="1368" y="1228"/>
      <point x="1439" y="1020"/>
      <point x="1439" y="740" type="curve" smooth="yes"/>
      <point x="1439" y="243"/>
      <point x="1208" y="-25"/>
    </contour>
  </outline>
</glyph>
<glyph name="Hbar" format="1">
  <advance width="1615"/>
  <unicode hex="0126"/>
  <outline>
    <contour>
      <point x="146" y="0" type="line" smooth="no"/>
      <point x="146" y="1481" type="line" smooth="no"/>
      <point x="607" y="1481" type="line" smooth="no"/>
      <point x="607" y="941" type="line" smooth="no"/>
      <point x="1008" y="941" type="line" smooth="no"/>
      <point x="1008" y="1481" type="line" smooth="no"/>
      <point x="1469" y="1481" type="line" smooth="no"/>
      <point x="1469" y="0" type="line" smooth="no"/>
      <point x="1008" y="0" type="line" smooth="no"/>
      <point x="1008" y="617" type="line" smooth="no"/>
      <point x="607" y="617" type="line" smooth="no"/>
      <point x="607" y="0" type="line" smooth="no"/>
    </contour>
    <contour>
      <point x="374" y="1647" type="line" smooth="no"/>
      <point x="664" y="1992" type="line" smooth="no"/>
      <point x="940" y="1992" type="line" smooth="no"/>
      <point x="1231" y="1647" type="line" smooth="no"/>
      <point x="933" y="1647" type="line" smooth="no"/>
      <point x="802" y="1811" type="line" smooth="no"/>
      <point x="662" y="1647" type="line" smooth="no"/>
    </contour>
  </outline>
</glyph>
<glyph name="dotlessi" format="1">
  <advance width="621"/>
  <unicode hex="0131"/>
  <outline>
    <contour>
      <point x="123" y="0" type="line" smooth="no"/>
      <point x="123" y="1038" type="line" smooth="no"/>
      <point x="510" y="1038" type="line" smooth="no"/>
      <point x="510" y="0" type="line" smooth="no"/>
    </contour>
  </outline>
</glyph>
<glyph name="oe" format="1">
  <advance width="1871"/>
  <unicode hex="0153"/>
  <outline>
    <contour>
      <point x="1144" y="659" type="curve" smooth="no"/>
      <point x="1444" y="659" type="line" smooth="no"/>
      <point x="1439" y="791"/>
      <point x="1379" y="819"/>
      <point x="1296" y="819" type="curve" smooth="yes"/>
      <point x="1214" y="819"/>
      <point x="1140" y="786"/>
    </contour>
    <contour>
      <point x="603" y="250" type="curve" smooth="yes"/>
      <point x="738" y="250"/>
      <point x="747" y="350"/>
      <point x="747" y="518" type="curve" smooth="yes"/>
      <point x="747" y="700"/>
      <point x="721" y="789"/>
      <point x="602" y="789" type="curve" smooth="yes"/>
      <point x="501" y="789"/>
      <point x="455" y="764"/>
      <point x="455" y="517" type="curve" smooth="yes"/>
      <point x="455" y="334"/>
      <point x="464" y="250"/>
    </contour>
    <contour>
      <point x="605" y="-25" type="curve" smooth="yes"/>
      <point x="104" y="-25"/>
      <point x="48" y="209"/>
      <point x="48" y="519" type="curve" smooth="yes"/>
      <point x="48" y="823"/>
      <point x="96" y="1065"/>
      <point x="602" y="1065" type="curve" smooth="yes"/>
      <point x="733" y="1065"/>
      <point x="877" y="1054"/>
      <point x="963" y="959" type="curve" smooth="no"/>
      <point x="1054" y="1043"/>
      <point x="1210" y="1068"/>
      <point x="1336" y="1068" type="curve" smooth="yes"/>
      <point x="1648" y="1068"/>
      <point x="1844" y="917"/>
      <point x="1844" y="610" type="curve" smooth="yes"/>
      <point x="1844" y="429" type="line" smooth="no"/>
      <point x="1147" y="429" type="line" smooth="no"/>
      <point x="1166" y="263"/>
      <point x="1291" y="255"/>
      <point x="1424" y="255" type="curve" smooth="yes"/>
      <point x="1501" y="255"/>
      <point x="1705" y="341"/>
      <point x="1752" y="368" type="curve" smooth="no"/>
      <point x="1769" y="368" type="line" smooth="no"/>
      <point x="1824" y="86" type="line" smooth="no"/>
      <point x="1743" y="30"/>
      <point x="1606" y="-25"/>
      <point x="1386" y="-25" type="curve" smooth="yes"/>
      <point x="1212" y="-25"/>
      <point x="1017" y="34"/>
      <point x="948" y="113" type="curve" smooth="no"/>
      <point x="895" y="45"/>
      <point x="752" y="-25"/>
    </contour>
  </outline>
</glyph>
<glyph name="uni02C9" format="1">
  <advance width="316"/>
  <unicode hex="02c9"/>
  <outline>
    <contour>
      <point x="-117" y="1167" type="line" smooth="no"/>
      <point x="-117" y="1356" type="line" smooth="no"/>
      <point x="438" y="1356" type="line" smooth="no"/>
      <point x="438" y="1167" type="line" smooth="no"/>
    </contour>
  </outline>
</glyph>
<glyph name="breve" format="1">
  <advance width="833"/>
  <unicode hex="02d8"/>
  <outline>
    <contour>
      <point x="424" y="1153" type="curve" smooth="yes"/>
      <point x="196" y="1153"/>
      <point x="77" y="1269"/>
      <point x="74" y="1485" type="curve" smooth="no"/>
      <point x="254" y="1485" type="line" smooth="no"/>
      <point x="264" y="1391"/>
      <point x="300" y="1320"/>
      <point x="424" y="1320" type="curve" smooth="yes"/>
      <point x="535" y="1320"/>
      <point x="588" y="1388"/>
      <point x="594" y="1485" type="curve" smooth="no"/>
      <point x="774" y="1485" type="line" smooth="no"/>
      <point x="771" y="1269"/>
      <point x="637" y="1153"/>
    </contour>
  </outline>
</glyph>
<glyph name="pi" format="1">
  <advance width="1218"/>
  <unicode hex="03c0"/>
  <outline>
    <contour>
      <point x="158" y="0" type="line" smooth="no"/>
      <point x="188" y="86"/>
      <point x="206" y="196"/>
      <point x="213" y="332" type="curve" smooth="yes"/>
      <point x="222" y="488"/>
      <point x="227" y="642"/>
      <point x="227" y="783" type="curve" smooth="no"/>
      <point x="146" y="783"/>
      <point x="81" y="763"/>
      <point x="21" y="727" type="curve" smooth="no"/>
      <point x="12" y="926" type="line" smooth="no"/>
      <point x="77" y="974"/>
      <point x="173" y="986"/>
      <point x="328" y="986" type="curve" smooth="yes"/>
      <point x="1169" y="986" type="line" smooth="no"/>
      <point x="1164" y="783" type="line" smooth="no"/>
      <point x="986" y="783" type="line" smooth="no"/>
      <point x="986" y="362" type="line" smooth="yes"/>
      <point x="986" y="293"/>
      <point x="1002" y="251"/>
      <point x="1037" y="241" type="curve" smooth="no"/>
      <point x="1055" y="190"/>
      <point x="1079" y="167"/>
      <point x="1103" y="156" type="curve" smooth="no"/>
      <point x="1037" y="10" type="line" smooth="no"/>
      <point x="1001" y="3"/>
      <point x="964" y="1"/>
      <point x="924" y="11" type="curve" smooth="no"/>
      <point x="788" y="32"/>
      <point x="727" y="138"/>
      <point x="727" y="326" type="curve" smooth="yes"/>
      <point x="727" y="783" type="line" smooth="no"/>
      <point x="484" y="783" type="line" smooth="no"/>
      <point x="482" y="642"/>
      <point x="477" y="479"/>
      <point x="467" y="320" type="curve" smooth="no"/>
      <point x="461" y="183"/>
      <point x="445" y="75"/>
      <point x="419" y="0" type="curve" smooth="no"/>
    </contour>
  </outline>
</glyph>
<glyph name="quotesinglbase" format="1">
  <advance width="585"/>
  <unicode hex="201a"/>
  <outline>
    <contour>
      <point x="120" y="-245" type="line" smooth="no"/>
      <point x="220" y="243" type="line" smooth="no"/>
      <point x="559" y="243" type="line" smooth="no"/>
      <point x="514" y="114"/>
      <point x="393" y="-245"/>
      <point x="393" y="-245" type="curve" smooth="no"/>
    </contour>
  </outline>
</glyph>
<glyph name="quotedblleft" format="1">
  <advance width="970"/>
  <unicode hex="201c"/>
  <outline>
    <contour>
      <point x="626" y="925" type="line" smooth="no"/>
      <point x="433" y="1481" type="line" smooth="no"/>
      <point x="795" y="1481" type="line" smooth="no"/>
      <point x="902" y="925" type="line" smooth="no"/>
    </contour>
    <contour>
      <point x="209" y="925" type="line" smooth="no"/>
      <point x="17" y="1481" type="line" smooth="no"/>
      <point x="379" y="1481" type="line" smooth="no"/>
      <point x="487" y="925" type="line" smooth="no"/>
    </contour>
  </outline>
</glyph>
<glyph name="quotedblbase" format="1">
  <advance width="925"/>
  <unicode hex="201e"/>
  <outline>
    <contour>
      <point x="466" y="-245" type="line" smooth="no"/>
      <point x="566" y="243" type="line" smooth="no"/>
      <point x="894" y="243" type="line" smooth="no"/>
      <point x="644" y="-245" type="line" smooth="no"/>
    </contour>
    <contour>
      <point x="94" y="-245" type="line" smooth="no"/>
      <point x="195" y="243" type="line" smooth="no"/>
      <point x="522" y="243" type="line" smooth="no"/>
      <point x="271" y="-245" type="line" smooth="no"/>
    </contour>
  </outline>
</glyph>
<glyph name="Euro" format="1">
  <advance width="1180"/>
  <unicode hex="20ac"/>
  <outline>
    <contour>
      <point x="753" y="-25" type="curve" smooth="no"/>
      <point x="413" y="-25"/>
      <point x="181" y="120"/>
      <point x="99" y="437" type="curve" smooth="no"/>
      <point x="-44" y="437" type="line" smooth="no"/>
      <point x="4" y="640" type="line" smooth="no"/>
      <point x="59" y="640" type="line" smooth="no"/>
      <point x="59" y="646"/>
      <point x="58" y="653"/>
      <point x="58" y="666" type="curve" smooth="yes"/>
      <point x="58" y="711"/>
      <point x="58" y="722"/>
      <point x="63" y="819" type="curve" smooth="no"/>
      <point x="-35" y="819" type="line" smooth="no"/>
      <point x="10" y="1010" type="line" smooth="no"/>
      <point x="92" y="1010" type="line" smooth="no"/>
      <point x="168" y="1300"/>
      <point x="381" y="1505"/>
      <point x="733" y="1505" type="curve" smooth="yes"/>
      <point x="877" y="1505"/>
      <point x="1021" y="1465"/>
      <point x="1146" y="1437" type="curve" smooth="no"/>
      <point x="1146" y="1083" type="line" smooth="no"/>
      <point x="1013" y="1083" type="line" smooth="no"/>
      <point x="965" y="1160"/>
      <point x="856" y="1175"/>
      <point x="842" y="1175" type="curve" smooth="yes"/>
      <point x="672" y="1175"/>
      <point x="631" y="1094"/>
      <point x="583" y="1010" type="curve" smooth="no"/>
      <point x="1031" y="1010" type="line" smooth="no"/>
      <point x="991" y="819" type="line" smooth="no"/>
      <point x="536" y="819" type="line" smooth="no"/>
      <point x="532" y="722"/>
      <point x="530" y="708"/>
      <point x="530" y="666" type="curve" smooth="yes"/>
      <point x="530" y="653"/>
      <point x="529" y="646"/>
      <point x="530" y="640" type="curve" smooth="no"/>
      <point x="953" y="640" type="line" smooth="no"/>
      <point x="907" y="437" type="line" smooth="no"/>
      <point x="598" y="437" type="line" smooth="no"/>
      <point x="664" y="323"/>
      <point x="750" y="319"/>
      <point x="818" y="306" type="curve" smooth="no"/>
      <point x="873" y="306"/>
      <point x="974" y="339"/>
      <point x="1049" y="396" type="curve" smooth="no"/>
      <point x="1146" y="396" type="line" smooth="no"/>
      <point x="1146" y="41" type="line" smooth="no"/>
      <point x="1039" y="17"/>
      <point x="928" y="-8"/>
    </contour>
  </outline>
</glyph>
<glyph name="partialdiff" format="1">
  <advance width="1107"/>
  <unicode hex="2202"/>
  <outline>
    <contour>
      <point x="484" y="191" type="curve" smooth="yes"/>
      <point x="623" y="191"/>
      <point x="723" y="384"/>
      <point x="749" y="616" type="curve" smooth="no"/>
      <point x="725" y="703"/>
      <point x="666" y="768"/>
      <point x="576" y="768" type="curve" smooth="yes"/>
      <point x="436" y="768"/>
      <point x="326" y="593"/>
      <point x="326" y="408" type="curve" smooth="yes"/>
      <point x="326" y="272"/>
      <point x="385" y="191"/>
    </contour>
    <contour>
      <point x="456" y="-16" type="curve" smooth="yes"/>
      <point x="205" y="-16"/>
      <point x="57" y="161"/>
      <point x="57" y="400" type="curve" smooth="yes"/>
      <point x="57" y="717"/>
      <point x="258" y="961"/>
      <point x="524" y="961" type="curve" smooth="yes"/>
      <point x="646" y="961"/>
      <point x="731" y="898"/>
      <point x="776" y="824" type="curve" smooth="no"/>
      <point x="780" y="824" type="line" smooth="no"/>
      <point x="780" y="874" type="line" smooth="yes"/>
      <point x="780" y="1088"/>
      <point x="703" y="1223"/>
      <point x="554" y="1248" type="curve" smooth="no"/>
      <point x="434" y="1270"/>
      <point x="342" y="1229"/>
      <point x="266" y="1183" type="curve" smooth="no"/>
      <point x="286" y="1387" type="line" smooth="no"/>
      <point x="365" y="1432"/>
      <point x="473" y="1469"/>
      <point x="610" y="1459" type="curve" smooth="no"/>
      <point x="881" y="1443"/>
      <point x="1037" y="1264"/>
      <point x="1052" y="912" type="curve" smooth="yes"/>
      <point x="1055" y="850"/>
      <point x="1054" y="783"/>
      <point x="1045" y="714" type="curve" smooth="no"/>
      <point x="1000" y="267"/>
      <point x="798" y="-16"/>
    </contour>
  </outline>
</glyph>
<glyph name="uni2206" format="1">
  <advance width="1100"/>
  <unicode hex="2206"/>
  <outline>
    <contour>
      <point x="831" y="671" type="line" smooth="no"/>
      <point x="553" y="1170" type="line" smooth="no"/>
      <point x="273" y="673" type="line" smooth="no"/>
    </contour>
    <contour>
      <point x="81" y="540" type="line" smooth="no"/>
      <point x="83" y="672" type="line" smooth="no"/>
      <point x="488" y="1376" type="line" smooth="no"/>
      <point x="616" y="1376" type="line" smooth="no"/>
      <point x="1019" y="674" type="line" smooth="no"/>
      <point x="1019" y="540" type="line" smooth="no"/>
    </contour>
  </outline>
</glyph>
<glyph name="summation" format="1">
  <advance width="1184"/>
  <unicode hex="2211"/>
  <outline>
    <contour>
      <point x="90" y="0" type="line" smooth="no"/>
      <point x="90" y="136" type="line" smooth="no"/>
      <point x="594" y="774" type="line" smooth="no"/>
      <point x="111" y="1316" type="line" smooth="no"/>
      <point x="111" y="1481" type="line" smooth="no"/>
      <point x="1077" y="1481" type="line" smooth="no"/>
      <point x="1077" y="1238" type="line" smooth="no"/>
      <point x="482" y="1238" type="line" smooth="no"/>
      <point x="871" y="797" type="line" smooth="no"/>
      <point x="448" y="239" type="line" smooth="no"/>
      <point x="1107" y="239" type="line" smooth="no"/>
      <point x="1107" y="0" type="line" smooth="no"/>
    </contour>
  </outline>
</glyph>
<glyph name="uni2219" format="1">
  <advance width="480"/>
  <unicode hex="2219"/>
  <outline>
    <contour>
      <point x="242" y="436" type="curve" smooth="yes"/>
      <point x="170" y="436"/>
      <point x="113" y="493"/>
      <point x="113" y="565" type="curve" smooth="yes"/>
      <point x="113" y="637"/>
      <point x="170" y="696"/>
      <point x="242" y="696" type="curve" smooth="yes"/>
      <point x="314" y="696"/>
      <point x="373" y="637"/>
      <point x="373" y="565" type="curve" smooth="yes"/>
      <point x="373" y="493"/>
      <point x="314" y="436"/>
    </contour>
  </outline>
</glyph>
<glyph name="f_i" format="1">
  <advance width="1329"/>
  <outline>
    <contour>
      <point x="1028" y="1192" type="curve" smooth="yes"/>
      <point x="880" y="1192"/>
      <point x="807" y="1298"/>
      <point x="807" y="1405" type="curve" smooth="yes"/>
      <point x="807" y="1510"/>
      <point x="880" y="1619"/>
      <point x="1028" y="1619" type="curve" smooth="yes"/>
      <point x="1177" y="1619"/>
      <point x="1250" y="1509"/>
      <point x="1250" y="1403" type="curve" smooth="yes"/>
      <point x="1250" y="1296"/>
      <point x="1176" y="1192"/>
    </contour>
    <contour>
      <point x="133" y="0" type="line" smooth="no"/>
      <point x="133" y="783" type="line" smooth="no"/>
      <point x="21" y="783" type="line" smooth="no"/>
      <point x="21" y="1035" type="line" smooth="no"/>
      <point x="133" y="1035" type="line" smooth="no"/>
      <point x="133" y="1077" type="line" smooth="yes"/>
      <point x="133" y="1328"/>
      <point x="275" y="1444"/>
      <point x="543" y="1444" type="curve" smooth="yes"/>
      <point x="618" y="1444"/>
      <point x="670" y="1436"/>
      <point x="726" y="1430" type="curve" smooth="no"/>
      <point x="726" y="1156" type="line" smooth="no"/>
      <point x="645" y="1163"/>
      <point x="646" y="1164"/>
      <point x="619" y="1164" type="curve" smooth="yes"/>
      <point x="561" y="1164"/>
      <point x="513" y="1137"/>
      <point x="513" y="1035" type="curve" smooth="no"/>
      <point x="1224" y="1035" type="line" smooth="no"/>
      <point x="1224" y="0" type="line" smooth="no"/>
      <point x="834" y="0" type="line" smooth="no"/>
      <point x="834" y="783" type="line" smooth="no"/>
      <point x="520" y="783" type="line" smooth="no"/>
      <point x="520" y="0" type="line" smooth="no"/>
    </contour>
  </outline>
</glyph>
<glyph name="f_l" format="1">
  <advance width="1338"/>
  <outline>
    <contour>
      <point x="1223" y="3" type="line" smooth="yes"/>
      <point x="828" y="3"/>
      <point x="810" y="163"/>
      <point x="810" y="360" type="curve" smooth="yes"/>
      <point x="810" y="1156" type="line" smooth="no"/>
      <point x="729" y="1163"/>
      <point x="669" y="1164"/>
      <point x="642" y="1164" type="curve" smooth="yes"/>
      <point x="584" y="1164"/>
      <point x="513" y="1137"/>
      <point x="513" y="1035" type="curve" smooth="no"/>
      <point x="728" y="1035" type="line" smooth="no"/>
      <point x="728" y="783" type="line" smooth="no"/>
      <point x="520" y="783" type="line" smooth="no"/>
      <point x="520" y="0" type="line" smooth="no"/>
      <point x="133" y="0" type="line" smooth="no"/>
      <point x="133" y="783" type="line" smooth="no"/>
      <point x="21" y="783" type="line" smooth="no"/>
      <point x="21" y="1035" type="line" smooth="no"/>
      <point x="133" y="1035" type="line" smooth="no"/>
      <point x="133" y="1077" type="line" smooth="yes"/>
      <point x="133" y="1328"/>
      <point x="296" y="1444"/>
      <point x="565" y="1444" type="curve" smooth="yes"/>
      <point x="730" y="1444"/>
      <point x="1197" y="1388"/>
      <point x="1197" y="1388" type="curve" smooth="no"/>
      <point x="1197" y="385" type="line" smooth="yes"/>
      <point x="1197" y="365"/>
      <point x="1170" y="255"/>
      <point x="1306" y="255" type="curve" smooth="no"/>
      <point x="1306" y="3" type="line" smooth="no"/>
    </contour>
  </outline>
</glyph>
